<svg xmlns="http://www.w3.org/2000/svg" viewBox="0 0 1200 800" preserveAspectRatio="xMidYMid slice" role="img" aria-label="Boat crossing to the Gilis"><title>Boat crossing to the Gilis (placeholder illustration)</title><defs><linearGradient id="sky" x1="0" y1="0" x2="0" y2="1"><stop offset="0" stop-color="#a9dcef"/><stop offset="1" stop-color="#e8f6fb"/></linearGradient><linearGradient id="sea" x1="0" y1="0" x2="0" y2="1"><stop offset="0" stop-color="#3aa9c2"/><stop offset="1" stop-color="#0d4f63"/></linearGradient></defs><rect width="1200" height="800" fill="url(#sky)"/><path d="M0,800 L0,413 Q0,413 150,400 Q300,387 450,391 Q600,396 750,408 Q900,420 1050,425 L1200,430 L1200,800Z" fill="#6a8f7a" opacity="0.7"/><rect y="430" width="1200" height="370" fill="url(#sea)"/><path d="M0,470 q15,-6 30,0 t30,0 q15,-6 30,0 t30,0 q15,-6 30,0 t30,0 q15,-6 30,0 t30,0 q15,-6 30,0 t30,0 q15,-6 30,0 t30,0 q15,-6 30,0 t30,0 q15,-6 30,0 t30,0 q15,-6 30,0 t30,0 q15,-6 30,0 t30,0 q15,-6 30,0 t30,0 q15,-6 30,0 t30,0 q15,-6 30,0 t30,0 q15,-6 30,0 t30,0 q15,-6 30,0 t30,0 q15,-6 30,0 t30,0 q15,-6 30,0 t30,0 q15,-6 30,0 t30,0 q15,-6 30,0 t30,0 q15,-6 30,0 t30,0 q15,-6 30,0 t30,0" fill="none" stroke="#fff" stroke-width="3" opacity="0.45" stroke-linecap="round"/><path d="M0,500 q15,-6 30,0 t30,0 q15,-6 30,0 t30,0 q15,-6 30,0 t30,0 q15,-6 30,0 t30,0 q15,-6 30,0 t30,0 q15,-6 30,0 t30,0 q15,-6 30,0 t30,0 q15,-6 30,0 t30,0 q15,-6 30,0 t30,0 q15,-6 30,0 t30,0 q15,-6 30,0 t30,0 q15,-6 30,0 t30,0 q15,-6 30,0 t30,0 q15,-6 30,0 t30,0 q15,-6 30,0 t30,0 q15,-6 30,0 t30,0 q15,-6 30,0 t30,0 q15,-6 30,0 t30,0 q15,-6 30,0 t30,0 q15,-6 30,0 t30,0 q15,-6 30,0 t30,0" fill="none" stroke="#fff" stroke-width="3" opacity="0.41" stroke-linecap="round"/><path d="M0,530 q15,-6 30,0 t30,0 q15,-6 30,0 t30,0 q15,-6 30,0 t30,0 q15,-6 30,0 t30,0 q15,-6 30,0 t30,0 q15,-6 30,0 t30,0 q15,-6 30,0 t30,0 q15,-6 30,0 t30,0 q15,-6 30,0 t30,0 q15,-6 30,0 t30,0 q15,-6 30,0 t30,0 q15,-6 30,0 t30,0 q15,-6 30,0 t30,0 q15,-6 30,0 t30,0 q15,-6 30,0 t30,0 q15,-6 30,0 t30,0 q15,-6 30,0 t30,0 q15,-6 30,0 t30,0 q15,-6 30,0 t30,0 q15,-6 30,0 t30,0 q15,-6 30,0 t30,0" fill="none" stroke="#fff" stroke-width="3" opacity="0.36" stroke-linecap="round"/><path d="M0,560 q15,-6 30,0 t30,0 q15,-6 30,0 t30,0 q15,-6 30,0 t30,0 q15,-6 30,0 t30,0 q15,-6 30,0 t30,0 q15,-6 30,0 t30,0 q15,-6 30,0 t30,0 q15,-6 30,0 t30,0 q15,-6 30,0 t30,0 q15,-6 30,0 t30,0 q15,-6 30,0 t30,0 q15,-6 30,0 t30,0 q15,-6 30,0 t30,0 q15,-6 30,0 t30,0 q15,-6 30,0 t30,0 q15,-6 30,0 t30,0 q15,-6 30,0 t30,0 q15,-6 30,0 t30,0 q15,-6 30,0 t30,0 q15,-6 30,0 t30,0 q15,-6 30,0 t30,0" fill="none" stroke="#fff" stroke-width="3" opacity="0.32" stroke-linecap="round"/><path d="M0,590 q15,-6 30,0 t30,0 q15,-6 30,0 t30,0 q15,-6 30,0 t30,0 q15,-6 30,0 t30,0 q15,-6 30,0 t30,0 q15,-6 30,0 t30,0 q15,-6 30,0 t30,0 q15,-6 30,0 t30,0 q15,-6 30,0 t30,0 q15,-6 30,0 t30,0 q15,-6 30,0 t30,0 q15,-6 30,0 t30,0 q15,-6 30,0 t30,0 q15,-6 30,0 t30,0 q15,-6 30,0 t30,0 q15,-6 30,0 t30,0 q15,-6 30,0 t30,0 q15,-6 30,0 t30,0 q15,-6 30,0 t30,0 q15,-6 30,0 t30,0 q15,-6 30,0 t30,0" fill="none" stroke="#fff" stroke-width="3" opacity="0.27" stroke-linecap="round"/><path d="M0,620 q15,-6 30,0 t30,0 q15,-6 30,0 t30,0 q15,-6 30,0 t30,0 q15,-6 30,0 t30,0 q15,-6 30,0 t30,0 q15,-6 30,0 t30,0 q15,-6 30,0 t30,0 q15,-6 30,0 t30,0 q15,-6 30,0 t30,0 q15,-6 30,0 t30,0 q15,-6 30,0 t30,0 q15,-6 30,0 t30,0 q15,-6 30,0 t30,0 q15,-6 30,0 t30,0 q15,-6 30,0 t30,0 q15,-6 30,0 t30,0 q15,-6 30,0 t30,0 q15,-6 30,0 t30,0 q15,-6 30,0 t30,0 q15,-6 30,0 t30,0 q15,-6 30,0 t30,0" fill="none" stroke="#fff" stroke-width="3" opacity="0.23" stroke-linecap="round"/><path d="M0,650 q15,-6 30,0 t30,0 q15,-6 30,0 t30,0 q15,-6 30,0 t30,0 q15,-6 30,0 t30,0 q15,-6 30,0 t30,0 q15,-6 30,0 t30,0 q15,-6 30,0 t30,0 q15,-6 30,0 t30,0 q15,-6 30,0 t30,0 q15,-6 30,0 t30,0 q15,-6 30,0 t30,0 q15,-6 30,0 t30,0 q15,-6 30,0 t30,0 q15,-6 30,0 t30,0 q15,-6 30,0 t30,0 q15,-6 30,0 t30,0 q15,-6 30,0 t30,0 q15,-6 30,0 t30,0 q15,-6 30,0 t30,0 q15,-6 30,0 t30,0 q15,-6 30,0 t30,0" fill="none" stroke="#fff" stroke-width="3" opacity="0.18" stroke-linecap="round"/><path d="M0,680 q15,-6 30,0 t30,0 q15,-6 30,0 t30,0 q15,-6 30,0 t30,0 q15,-6 30,0 t30,0 q15,-6 30,0 t30,0 q15,-6 30,0 t30,0 q15,-6 30,0 t30,0 q15,-6 30,0 t30,0 q15,-6 30,0 t30,0 q15,-6 30,0 t30,0 q15,-6 30,0 t30,0 q15,-6 30,0 t30,0 q15,-6 30,0 t30,0 q15,-6 30,0 t30,0 q15,-6 30,0 t30,0 q15,-6 30,0 t30,0 q15,-6 30,0 t30,0 q15,-6 30,0 t30,0 q15,-6 30,0 t30,0 q15,-6 30,0 t30,0 q15,-6 30,0 t30,0" fill="none" stroke="#fff" stroke-width="3" opacity="0.14" stroke-linecap="round"/><path d="M480,560 L720,560 L684.0,602.0 L516.0,602.0Z" fill="#0b2025"/><path d="M600,428.0 L600,556 L684.0,554Z" fill="#f5f8f5"/><path d="M260,500 L340,500 L328.0,514.0 L272.0,514.0Z" fill="#2b4a52"/><path d="M300,456.0 L300,496 L328.0,494Z" fill="#f5f8f5"/></svg>
