<svg xmlns="http://www.w3.org/2000/svg" viewBox="0 0 1200 800" preserveAspectRatio="xMidYMid slice" role="img" aria-label="Coral restoration frames"><title>Coral restoration frames (placeholder illustration)</title><defs><linearGradient id="sky" x1="0" y1="0" x2="0" y2="1"><stop offset="0" stop-color="#27b0bf"/><stop offset="1" stop-color="#073a44"/></linearGradient></defs><rect width="1200" height="800" fill="url(#sky)"/><path d="M100,0 L180,0 L360,800 L220,800Z" fill="#fff" opacity=".06"/><path d="M420,0 L500,0 L680,800 L540,800Z" fill="#fff" opacity=".06"/><path d="M760,0 L840,0 L1020,800 L880,800Z" fill="#fff" opacity=".06"/><path d="M0,800 L0,692 Q0,692 75,700 Q150,708 225,714 Q300,720 375,717 Q450,714 525,704 Q600,695 675,695 Q750,696 825,704 Q900,712 975,716 Q1050,720 1125,715 L1200,709 L1200,800Z" fill="#0b4a52" opacity="1"/><path d="M120,700 L180,560 L300,560 L360,700" stroke="#9aa9a7" stroke-width="8" fill="none"/><circle cx="160" cy="575" r="16" fill="#ff9fb2"/><circle cx="200" cy="615" r="16" fill="#ffd166"/><circle cx="240" cy="575" r="16" fill="#5ee0c0"/><circle cx="280" cy="615" r="16" fill="#ff7d6b"/><path d="M480,700 L540,560 L660,560 L720,700" stroke="#9aa9a7" stroke-width="8" fill="none"/><circle cx="520" cy="575" r="16" fill="#ff9fb2"/><circle cx="560" cy="615" r="16" fill="#ffd166"/><circle cx="600" cy="575" r="16" fill="#5ee0c0"/><circle cx="640" cy="615" r="16" fill="#ff7d6b"/><path d="M840,700 L900,560 L1020,560 L1080,700" stroke="#9aa9a7" stroke-width="8" fill="none"/><circle cx="880" cy="575" r="16" fill="#ff9fb2"/><circle cx="920" cy="615" r="16" fill="#ffd166"/><circle cx="960" cy="575" r="16" fill="#5ee0c0"/><circle cx="1000" cy="615" r="16" fill="#ff7d6b"/></svg>
