<svg xmlns="http://www.w3.org/2000/svg" viewBox="0 0 1200 800" preserveAspectRatio="xMidYMid slice" role="img" aria-label="Samalas eruption deposit layers"><title>Samalas eruption deposit layers (placeholder illustration)</title><defs><linearGradient id="sky" x1="0" y1="0" x2="0" y2="1"><stop offset="0" stop-color="#e9c7a1"/><stop offset="1" stop-color="#9c6b4e"/></linearGradient></defs><rect width="1200" height="800" fill="url(#sky)"/><path d="M350.0,460 C575.0,420 704.0,220 740,180 L782.0,198 L824.0,188 L860,180 C896.0,220 1025.0,420 1250.0,460 Z" fill="#5a4a42" opacity="1"/><path d="M760,190 q-40,-80 20,-120 q60,-30 40,-90" stroke="#cbb8a8" stroke-width="30" fill="none" opacity=".45" stroke-linecap="round"/><path d="M0,430 Q300,410 600,440 T1200,430 L1200,800 L0,800Z" fill="#d8c3a5"/><path d="M0,485 Q300,465 600,495 T1200,485 L1200,800 L0,800Z" fill="#bfa384"/><path d="M0,540 Q300,520 600,550 T1200,540 L1200,800 L0,800Z" fill="#e6dcc8"/><path d="M0,595 Q300,575 600,605 T1200,595 L1200,800 L0,800Z" fill="#a88466"/><path d="M0,650 Q300,630 600,660 T1200,650 L1200,800 L0,800Z" fill="#cdbb9c"/><path d="M0,705 Q300,685 600,715 T1200,705 L1200,800 L0,800Z" fill="#8c6a50"/><path d="M0,760 Q300,740 600,770 T1200,760 L1200,800 L0,800Z" fill="#e0d3bb"/></svg>
