<svg xmlns="http://www.w3.org/2000/svg" viewBox="0 0 1200 800" preserveAspectRatio="xMidYMid slice" role="img" aria-label="Sasak village houses"><title>Sasak village houses (placeholder illustration)</title><defs><linearGradient id="sky" x1="0" y1="0" x2="0" y2="1"><stop offset="0" stop-color="#bfe3d3"/><stop offset="1" stop-color="#f4ead2"/></linearGradient></defs><rect width="1200" height="800" fill="url(#sky)"/><path d="M0,800 L0,388 Q0,388 120,403 Q240,417 360,413 Q480,409 600,388 Q720,367 840,360 Q960,354 1080,375 L1200,397 L1200,800Z" fill="#5c8f63" opacity="1"/><path d="M0,800 L0,526 Q0,526 100,529 Q200,532 300,546 Q400,559 500,555 Q600,552 700,543 Q800,535 900,530 Q1000,526 1100,532 L1200,537 L1200,800Z" fill="#3e7a4c" opacity="1"/><rect x="240.5" y="563.5" width="118.99999999999999" height="76.5" fill="#e2c79b"/><path d="M194.6,572.0 L300,444.5 L405.4,572.0Z" fill="#8a6a3a"/><rect x="511.0" y="597.0" width="98.0" height="63.0" fill="#d8b98a"/><path d="M473.2,604.0 L560,499.0 L646.8,604.0Z" fill="#7a5a2e"/><rect x="764.0" y="578.0" width="112.0" height="72.0" fill="#e2c79b"/><path d="M720.8,586.0 L820,466.0 L919.2,586.0Z" fill="#8a6a3a"/><path d="M1030,680 q-10,-95.0 8,-190" stroke="#2e5a35" stroke-width="10" fill="none" stroke-linecap="round"/><path d="M1038,490 Q988.9010605639363,452.0 940,501" stroke="#2e5a35" stroke-width="9" fill="none" stroke-linecap="round"/><path d="M1038,490 Q1011.875,452.0 986,467" stroke="#2e5a35" stroke-width="9" fill="none" stroke-linecap="round"/><path d="M1038,490 Q1064.125,452.0 1090,467" stroke="#2e5a35" stroke-width="9" fill="none" stroke-linecap="round"/><path d="M1038,490 Q1087.0989394360636,452.0 1136,501" stroke="#2e5a35" stroke-width="9" fill="none" stroke-linecap="round"/><path d="M1038,490 Q1033.4461124414347,452.0 1029,458" stroke="#2e5a35" stroke-width="9" fill="none" stroke-linecap="round"/><path d="M0,800 L0,748 Q0,748 100,746 Q200,744 300,749 Q400,755 500,757 Q600,760 700,756 Q800,753 900,749 Q1000,745 1100,746 L1200,746 L1200,800Z" fill="#6f8f4a" opacity="1"/></svg>
